HIERARCHY
ROOT Hips
{
	OFFSET 0.00 0.00 0.00
	CHANNELS 6 Xposition Yposition Zposition Xrotation Yrotation Zrotation
	JOINT Spine
	{
		OFFSET 0.00000 7.50895 0.00000
		CHANNELS 3 Xrotation Yrotation Zrotation
		JOINT Head
		{
			OFFSET 0.00000 13.86115 0.00000
			CHANNELS 3 Xrotation Yrotation Zrotation
			End Site
			{
				OFFSET 0.00000 4.52755 0.00000
			}
		}
		JOINT LeftShoulder
		{
			OFFSET 0.00000 8.20478 0.00000
			CHANNELS 3 Xrotation Yrotation Zrotation
			JOINT LeftArm
			{
				OFFSET 6.63596 0.00000 0.00000
				CHANNELS 3 Xrotation Yrotation Zrotation
				JOINT LeftForeArm
				{
					OFFSET 10.27422 0.00000 0.00000
					CHANNELS 3 Yrotation Zrotation Xrotation
					JOINT LeftHand
					{
						OFFSET 8.52215 0.00000 0.00000
						CHANNELS 3 Xrotation Yrotation Zrotation
						JOINT LeftHandThumb1
						{
							OFFSET 0.00000 0.00000 0.00000
							CHANNELS 3 Xrotation Zrotation Yrotation
							End Site
							{
								OFFSET 0.00000 0.00000 3.93700
							}
						}
						End Site
						{
							OFFSET 3.93700 0.00000 0.00000
						}
					}
				}
			}
		}
		JOINT RightShoulder
		{
			OFFSET 0.00000 8.20478 0.00000
			CHANNELS 3 Xrotation Yrotation Zrotation
			JOINT RightArm
			{
				OFFSET -6.63596 0.00000 0.00000
				CHANNELS 3 Xrotation Yrotation Zrotation
				JOINT RightForeArm
				{
					OFFSET -10.27422 0.00000 0.00000
					CHANNELS 3 Yrotation Zrotation Xrotation
					JOINT RightHand
					{
						OFFSET -8.52215 0.00000 0.00000
						CHANNELS 3 Xrotation Yrotation Zrotation
						JOINT RightHandThumb1
						{
							OFFSET 0.00000 0.00000 0.00000
							CHANNELS 3 Xrotation Zrotation Yrotation
							End Site
							{
								OFFSET 0.00000 0.00000 3.93700
							}
						}
						End Site
						{
							OFFSET -3.93700 0.00000 0.00000
						}
					}
				}
			}
		}
	}
	JOINT LeftUpLeg
	{
		OFFSET 3.00056 0.00000 0.00000
		CHANNELS 3 Xrotation Yrotation Zrotation
		JOINT LeftLeg
		{
			OFFSET 0.00000 -16.49085 0.00000
			CHANNELS 3 Xrotation Yrotation Zrotation
			JOINT LeftFoot
			{
				OFFSET 0.00000 -14.55658 0.00000
				CHANNELS 3 Xrotation Yrotation Zrotation
				JOINT LeftToeBase
				{
					OFFSET 0.00000 -1.25038 4.66650
					CHANNELS 3 Xrotation Yrotation Zrotation
					End Site
					{
						OFFSET 0.00000 0.00000 2.95275
					}
				}
			}
		}
	}
	JOINT RightUpLeg
	{
		OFFSET -3.00056 0.00000 0.00000
		CHANNELS 3 Xrotation Yrotation Zrotation
		JOINT RightLeg
		{
			OFFSET 0.00000 -16.49085 0.00000
			CHANNELS 3 Xrotation Yrotation Zrotation
			JOINT RightFoot
			{
				OFFSET 0.00000 -14.55658 0.00000
				CHANNELS 3 Xrotation Yrotation Zrotation
				JOINT RightToeBase
				{
					OFFSET 0.00000 -1.25038 4.66650
					CHANNELS 3 Xrotation Yrotation Zrotation
					End Site
					{
						OFFSET 0.00000 0.00000 2.95275
					}
				}
			}
		}
	}
}
MOTION
Frames: 13
Frame Time: 0.008333
 -6.5142 33.6892 0.7153 118.1914 6.2864 85.6020 -33.5217 12.6833 4.3548 -72.5361 -3.2283 16.6110 21.9163 16.3724 14.4859 9.1476 -37.6141 -67.9419 -14.7599 0.0000 16.4611 1.6577 30.3478 -3.2784 33.1476 -0.0000 26.2537 -14.0533 -13.1216 -20.3320 28.8562 31.7745 84.3129 13.2228 -0.0000 31.3565 1.7456 -4.1994 22.5957 32.8623 0.0000 -24.3270 -93.2948 -2.8288 20.5900 -6.4451 -0.0000 -0.0000 -6.7981 19.9084 1.0711 4.8204 -0.0000 0.0000 10.0149 -10.0682 -14.2105 20.5791 -0.0000 -0.0000 41.4792 2.7393 2.1727 18.3843 -0.0000 -0.0000
 -6.5109 33.6875 0.7175 118.2191 6.4781 85.6015 -33.5847 12.7053 4.3829 -72.6950 -3.1927 16.6048 21.9597 16.3888 14.4531 9.2452 -37.7804 -68.0730 -14.7914 0.0000 16.2518 1.5635 30.5625 -3.0727 33.1476 -0.0000 26.2537 -14.0393 -13.1715 -20.3108 29.0050 31.6484 84.2926 13.1634 -0.0000 31.5109 1.7616 -4.2390 22.5910 32.8623 0.0000 -24.3270 -93.4934 -2.8007 20.6044 -6.4648 -0.0000 -0.0000 -6.7669 19.8593 1.0098 4.7525 -0.0000 -0.0000 10.1154 -10.1694 -14.3494 20.6186 -0.0000 -0.0000 41.5084 2.7220 2.1059 18.3776 0.0000 -0.0000
 -6.5063 33.6901 0.7209 118.2731 6.6539 85.5308 -33.6296 12.6722 4.5354 -72.8676 -3.1152 16.6099 21.9688 16.4156 14.3627 9.2776 -37.7669 -68.2697 -14.7363 0.0000 16.4739 1.6692 30.2490 -3.3108 33.1476 -0.0000 26.2537 -14.0387 -13.1934 -20.3391 29.1205 31.4552 84.2588 13.1422 -0.0000 31.5894 1.7625 -4.1929 22.8243 32.8623 0.0000 -24.3270 -93.7050 -2.8508 20.6343 -6.4436 -0.0000 -0.0000 -6.7467 19.8079 1.0386 4.8123 0.0000 0.0000 10.2230 -10.2132 -14.4160 20.6817 0.0000 -0.0000 41.4955 2.7000 1.8883 18.4882 0.0000 -0.0000
 -6.5096 33.6993 0.7346 118.4355 6.9714 85.4975 -33.8745 12.7362 4.6756 -72.9991 -3.0010 16.6837 22.0489 16.4850 14.2504 9.3975 -37.9025 -68.3915 -14.8409 0.0000 16.2374 1.5565 30.8767 -3.0309 33.1476 -0.0000 26.2537 -14.0181 -13.2517 -20.3232 29.2322 31.3117 84.2083 13.0287 -0.0000 31.8287 1.7687 -4.1897 22.9117 32.8623 0.0000 -24.3270 -94.0250 -2.8547 20.7468 -6.4611 -0.0000 -0.0000 -6.7012 19.7987 1.0466 4.8344 -0.0000 0.0000 10.1428 -10.0530 -14.5514 20.8006 0.0000 -0.0000 41.5990 2.6374 2.1259 18.1110 0.0000 -0.0000
 -6.5081 33.7052 0.7393 118.5118 7.2069 85.4547 -34.0074 12.7005 4.7853 -73.1677 -2.8685 16.7720 22.1325 16.5924 14.1854 9.3225 -37.8645 -68.6331 -14.7426 0.0000 16.4769 1.6467 30.4948 -3.2424 33.1476 -0.0000 26.2537 -14.0651 -13.2169 -20.3290 29.4120 31.1679 84.2142 12.9461 -0.0000 32.1229 1.8095 -4.2985 22.8552 32.8623 0.0000 -24.3270 -94.2583 -2.9228 20.7898 -6.4614 -0.0000 -0.0000 -6.6812 19.8397 1.1853 4.9512 0.0000 -0.0000 10.1992 -9.9989 -14.6324 20.8525 0.0000 0.0000 41.6818 2.6838 1.9218 18.0144 -0.0000 0.0000
 -6.5064 33.7034 0.7432 118.5580 7.3893 85.4470 -34.0698 12.6906 4.8360 -73.3439 -2.7976 16.8572 22.0793 16.6186 14.1244 9.5313 -37.9443 -68.7733 -14.7915 0.0000 16.3784 1.5793 30.7949 -3.0826 33.1476 -0.0000 26.2537 -14.0626 -13.2672 -20.3021 29.5559 31.1127 84.1264 12.8869 -0.0000 32.3709 1.8026 -4.2462 23.0281 32.8623 0.0000 -24.3270 -94.4357 -2.9565 20.8137 -6.4648 -0.0000 0.0000 -6.6950 19.8394 1.2755 4.9207 0.0000 0.0000 10.3144 -10.0058 -14.7584 20.9124 -0.0000 0.0000 41.6519 2.7047 1.8930 18.2634 -0.0000 0.0000
 -6.5053 33.7048 0.7434 118.6290 7.5576 85.4313 -34.1066 12.7383 4.8904 -73.5902 -2.7235 16.8935 22.0875 16.6573 14.0599 9.5637 -37.8703 -68.9407 -14.7975 0.0000 16.8061 1.7923 30.8283 -3.4942 33.1476 -0.0000 26.2537 -14.0451 -13.3340 -20.2305 29.7213 30.9839 84.0171 12.8654 -0.0000 32.5901 1.7861 -4.1885 23.1200 32.8623 0.0000 -24.3270 -94.5771 -3.0353 20.8757 -6.4870 -0.0000 -0.0000 -6.6880 19.8856 1.3229 4.9328 0.0000 -0.0000 10.4390 -9.9635 -14.8657 21.0001 -0.0000 0.0000 41.6686 2.6643 1.9335 18.0334 0.0000 -0.0000
 -6.4993 33.7018 0.7403 118.6588 7.6964 85.3426 -34.1405 12.7016 5.0433 -73.7419 -2.5647 16.9436 22.0401 16.6766 13.9852 9.7160 -37.8468 -69.1220 -14.8641 0.0000 16.6333 1.6194 31.0215 -3.1400 33.1476 -0.0000 26.2537 -14.0873 -13.3558 -20.2921 29.8818 30.7939 84.0159 12.8093 -0.0000 32.8400 1.8577 -4.3894 22.9668 32.8623 0.0000 -24.3270 -94.7242 -3.1869 20.8954 -6.4692 0.0000 0.0000 -6.7064 19.9012 1.4017 4.8938 -0.0000 0.0000 10.6503 -9.9466 -14.8799 21.0162 -0.0000 0.0000 41.7250 2.6288 2.0064 18.1037 -0.0000 0.0000
 -6.4951 33.7037 0.7431 118.7224 7.8695 85.3260 -34.1934 12.7361 5.1049 -73.9380 -2.4639 17.0355 22.0871 16.7526 13.9276 9.6431 -37.7530 -69.3454 -14.8182 0.0000 17.0000 1.8224 30.9104 -3.5442 33.1476 -0.0000 26.2537 -14.0812 -13.3425 -20.2554 30.0899 30.7230 83.9558 12.7647 -0.0000 33.0980 1.8090 -4.2687 22.9926 32.8623 0.0000 -24.3270 -94.8500 -3.3024 20.9474 -6.5127 0.0000 0.0000 -6.6657 19.9936 1.4639 4.8646 0.0000 -0.0000 10.7685 -9.9193 -14.9876 21.0792 -0.0000 -0.0000 41.7845 2.6477 1.8963 18.0433 0.0000 0.0000
 -6.4947 33.7067 0.7501 118.8137 8.1055 85.3521 -34.3350 12.8473 5.1022 -74.1042 -2.4228 17.1463 22.0899 16.7875 13.9350 9.7113 -37.7111 -69.5412 -14.8566 0.0000 17.0789 1.7875 30.9922 -3.4683 33.1476 -0.0000 26.2537 -14.0020 -13.4319 -20.1806 30.2519 30.7905 83.8428 12.7657 -0.0000 33.0174 1.8633 -4.3799 23.0734 32.8623 0.0000 -24.3270 -95.0377 -3.3213 21.0158 -6.5716 0.0000 0.0000 -6.6272 20.0484 1.5181 4.8917 -0.0000 0.0000 10.7878 -9.8699 -15.1602 21.1755 -0.0000 0.0000 41.8327 2.6743 1.9562 18.0236 -0.0000 0.0000
 -6.4868 33.7099 0.7464 118.8829 8.2053 85.2230 -34.3242 12.8816 5.3125 -74.2890 -2.3704 17.1239 22.0993 16.7689 13.8851 9.7061 -37.7545 -69.7842 -14.8142 0.0000 17.1560 1.7914 31.0123 -3.4739 33.1476 -0.0000 26.2537 -13.9414 -13.4776 -20.1906 30.3272 30.7640 83.7812 12.6448 -0.0000 33.1512 1.8003 -4.2036 23.2102 32.8623 0.0000 -24.3270 -95.1432 -3.5323 21.0828 -6.5500 -0.0000 0.0000 -6.6129 20.1130 1.5081 5.0508 -0.0000 0.0000 10.9891 -9.8169 -15.1453 21.2367 -0.0000 0.0000 41.8813 2.6130 2.0474 17.9843 -0.0000 0.0000
 -6.4822 33.7146 0.7504 118.9774 8.3836 85.1859 -34.3774 12.9498 5.4226 -74.5125 -2.3246 17.1265 21.9893 16.7216 13.8622 9.8588 -37.6603 -70.0032 -14.8174 0.0000 17.3892 1.8147 31.2484 -3.4951 33.1476 -0.0000 26.2537 -14.0533 -13.4599 -20.2276 30.6106 30.8108 83.7085 12.6200 -0.0000 33.0924 1.8384 -4.2488 23.4234 32.8623 0.0000 -24.3270 -95.3100 -3.6056 21.1609 -6.5694 -0.0000 -0.0000 -6.5622 20.1727 1.4578 5.0017 0.0000 -0.0000 11.0860 -9.8025 -15.2524 21.2677 -0.0000 0.0000 41.8583 2.6746 1.9971 18.1102 0.0000 0.0000
 -6.4774 33.7184 0.7521 119.0921 8.5428 85.1016 -34.4401 13.0035 5.5970 -74.7067 -2.2465 17.1445 21.9888 16.7302 13.8039 9.9336 -37.7161 -70.2235 -14.8003 0.0000 17.1162 1.7532 31.2434 -3.3773 33.1476 -0.0000 26.2537 -14.0274 -13.4802 -20.2460 30.7436 30.8378 83.6352 12.5527 -0.0000 33.1336 1.8386 -4.2150 23.5932 32.8623 0.0000 -24.3270 -95.4818 -3.6954 21.2630 -6.5759 -0.0000 -0.0000 -6.4987 20.1734 1.3287 4.9300 -0.0000 -0.0000 11.1834 -9.7882 -15.3198 21.3138 -0.0000 0.0000 41.8561 2.6346 2.0434 17.9844 0.0000 -0.0000
